<svg width="24" height="24" viewBox="0 0 24 24" fill="none" xmlns="http://www.w3.org/2000/svg">
<path fill-rule="evenodd" clip-rule="evenodd" d="M12 22.4C17.7438 22.4 22.4 17.7438 22.4 12C22.4 6.25624 17.7438 1.6 12 1.6C6.25624 1.6 1.6 6.25624 1.6 12C1.6 17.7438 6.25624 22.4 12 22.4ZM12 24C18.6274 24 24 18.6274 24 12C24 5.37258 18.6274 0 12 0C5.37258 0 0 5.37258 0 12C0 18.6274 5.37258 24 12 24ZM7.46967 7.46967C7.76256 7.17678 8.23744 7.17678 8.53033 7.46967L12 10.9393L15.4697 7.46967C15.7626 7.17678 16.2374 7.17678 16.5303 7.46967C16.8232 7.76256 16.8232 8.23744 16.5303 8.53033L13.0607 12L16.5303 15.4697C16.8232 15.7626 16.8232 16.2374 16.5303 16.5303C16.2374 16.8232 15.7626 16.8232 15.4697 16.5303L12 13.0607L8.53033 16.5303C8.23744 16.8232 7.76256 16.8232 7.46967 16.5303C7.17678 16.2374 7.17678 15.7626 7.46967 15.4697L10.9393 12L7.46967 8.53033C7.17678 8.23744 7.17678 7.76256 7.46967 7.46967Z" fill="#E61C1C"/>
</svg>
