<svg width="20" height="20" viewBox="0 0 20 20" fill="none" xmlns="http://www.w3.org/2000/svg">
<circle cx="10" cy="10" r="10" fill="white"/>
<path fill-rule="evenodd" clip-rule="evenodd" d="M10 15C12.7614 15 15 12.7614 15 10C15 7.23858 12.7614 5 10 5C7.23858 5 5 7.23858 5 10C5 12.7614 7.23858 15 10 15ZM10 16C13.3137 16 16 13.3137 16 10C16 6.68629 13.3137 4 10 4C6.68629 4 4 6.68629 4 10C4 13.3137 6.68629 16 10 16ZM9.91406 6.5C10.1902 6.5 10.4141 6.72386 10.4141 7V10.8281C10.4141 11.1043 10.1902 11.3281 9.91406 11.3281C9.63792 11.3281 9.41406 11.1043 9.41406 10.8281V7C9.41406 6.72386 9.63792 6.5 9.91406 6.5ZM9.91357 13C10.1897 13 10.4136 12.7761 10.4136 12.5C10.4136 12.2239 10.1897 12 9.91357 12C9.63743 12 9.41357 12.2239 9.41357 12.5C9.41357 12.7761 9.63743 13 9.91357 13Z" fill="#2F2F2F"/>
</svg>
