<svg width="24" height="24" viewBox="0 0 24 24" fill="none" xmlns="http://www.w3.org/2000/svg">
<path d="M12 0C18.6274 0 24 5.37258 24 12C24 18.6274 18.6274 24 12 24C5.37258 24 0 18.6274 0 12C0 5.37258 5.37258 0 12 0ZM12 1.59961C6.25624 1.59961 1.59961 6.25624 1.59961 12C1.59961 17.7438 6.25624 22.4004 12 22.4004C17.7438 22.4004 22.4004 17.7438 22.4004 12C22.4004 6.25624 17.7438 1.59961 12 1.59961ZM12 16C12.5523 16 13 16.4477 13 17C13 17.5523 12.5523 18 12 18C11.4477 18 11 17.5523 11 17C11 16.4477 11.4477 16 12 16ZM12 5.25C12.3883 5.25 12.7077 5.5456 12.7461 5.92383L12.75 6V13.6562L12.7461 13.7324C12.7078 14.1108 12.3884 14.4062 12 14.4062C11.6116 14.4062 11.2922 14.1108 11.2539 13.7324L11.25 13.6562V6L11.2539 5.92383C11.2923 5.5456 11.6117 5.25 12 5.25Z" fill="#2D8EE9"/>
</svg>
